<svg width="268" height="75" viewBox="0 0 268 75" fill="none" xmlns="http://www.w3.org/2000/svg">
<rect x="8" y="19" width="26" height="44" fill="#14208C"/>
<rect x="39" y="10" width="28" height="28" fill="#14208C"/>
<rect x="72" y="19" width="26" height="44" fill="#14208C"/>
<rect x="31" y="63" width="18" height="44" transform="rotate(-90 31 63)" fill="#14208C"/>
<path d="M117.828 29.852H126.54V34.1H117.828V44H111.888V19.052H128.268L127.692 23.264H117.828V29.852ZM138.838 29.276H147.478V33.38H138.838V39.752H149.242V44H132.934V19.052H149.242L148.63 23.264H138.838V29.276ZM171.836 31.4C171.836 39.8 167.816 44 159.776 44H153.044V19.052H159.344C163.112 19.052 166.136 19.94 168.416 21.716C170.696 23.468 171.836 26.696 171.836 31.4ZM165.752 31.4C165.752 28.304 165.272 26.192 164.312 25.064C163.352 23.912 161.984 23.336 160.208 23.336H158.948V39.716H160.208C162.008 39.716 163.376 39.104 164.312 37.88C165.272 36.632 165.752 34.472 165.752 31.4ZM192.99 39.284L192.378 44H174.162V39.572L186.006 23.624H175.458V19.052H192.702V23.516L181.11 39.284H192.99ZM213.244 23.372H208.096V39.644H213.244V44H197.044V39.644H202.192V23.372H197.044V19.052H213.244V23.372ZM221.942 23.948C222.182 25.772 222.386 27.536 222.554 29.24C222.722 30.92 222.806 32.708 222.806 34.604V44H217.802V19.052H225.182L231.518 39.032C230.942 35.336 230.654 31.856 230.654 28.592V19.052H235.658V44H228.494L221.942 23.948Z" fill="#F5820E"/>
<path d="M240.124 44V19.052H246.028V44H240.124ZM253.012 19.052H259.204L252.148 30.248L259.888 44H253.084L246.208 30.68L253.012 19.052Z" fill="#F5820E"/>
<path d="M253 19L246 31L253 44H260L252.5 30.5L259.5 19H253Z" fill="#8941D9"/>
<path d="M140.189 56.476C140.189 58.1747 139.799 59.3533 139.019 60.012C138.239 60.6707 137.277 61 136.133 61H134.079V52.043H135.99C137.247 52.043 138.261 52.3593 139.032 52.992C139.803 53.6247 140.189 54.786 140.189 56.476ZM138.98 56.476C138.98 55.5053 138.846 54.7643 138.577 54.253C138.317 53.733 137.992 53.3907 137.602 53.226C137.212 53.0527 136.766 52.966 136.263 52.966H135.21V60.09H136.276C137.047 60.09 137.689 59.8257 138.2 59.297C138.72 58.7597 138.98 57.8193 138.98 56.476ZM144.695 50.951C144.938 50.951 145.133 51.0247 145.28 51.172C145.427 51.3107 145.501 51.4927 145.501 51.718C145.501 51.9433 145.427 52.1297 145.28 52.277C145.133 52.4157 144.938 52.485 144.695 52.485C144.461 52.485 144.27 52.4157 144.123 52.277C143.984 52.1297 143.915 51.9433 143.915 51.718C143.915 51.4927 143.984 51.3107 144.123 51.172C144.27 51.0247 144.461 50.951 144.695 50.951ZM145.566 60.129H147.49V61H142.368V60.129H144.474V55.02H142.433V54.149H145.566V60.129ZM152.23 60.246C152.75 60.246 153.162 60.1463 153.465 59.947C153.768 59.7477 153.92 59.4833 153.92 59.154C153.92 58.9287 153.881 58.7467 153.803 58.608C153.725 58.4607 153.569 58.3307 153.335 58.218C153.101 58.0967 152.746 57.9753 152.269 57.854C151.472 57.6547 150.882 57.4163 150.501 57.139C150.12 56.853 149.929 56.4327 149.929 55.878C149.929 55.306 150.167 54.851 150.644 54.513C151.121 54.175 151.749 54.006 152.529 54.006C153.482 54.006 154.314 54.2573 155.025 54.76L154.531 55.514C154.245 55.3147 153.946 55.163 153.634 55.059C153.322 54.9463 152.962 54.89 152.555 54.89C151.567 54.89 151.073 55.189 151.073 55.787C151.073 55.995 151.125 56.164 151.229 56.294C151.342 56.424 151.519 56.541 151.762 56.645C152.013 56.7403 152.386 56.8573 152.88 56.996C153.625 57.1953 154.18 57.451 154.544 57.763C154.917 58.0663 155.103 58.5127 155.103 59.102C155.103 59.7867 154.826 60.298 154.271 60.636C153.716 60.974 153.036 61.143 152.23 61.143C151.155 61.143 150.263 60.8353 149.552 60.22L150.163 59.505C150.44 59.7303 150.757 59.9123 151.112 60.051C151.467 60.181 151.84 60.246 152.23 60.246ZM163.132 60.649C162.898 60.805 162.612 60.9263 162.274 61.013C161.944 61.0997 161.615 61.143 161.286 61.143C160.566 61.143 160.003 60.9567 159.596 60.584C159.188 60.2027 158.985 59.7043 158.985 59.089V55.007H157.412V54.149H158.985V52.602L160.077 52.472V54.149H162.456L162.313 55.007H160.077V59.076C160.077 59.466 160.181 59.7563 160.389 59.947C160.597 60.1377 160.93 60.233 161.39 60.233C161.858 60.233 162.295 60.1247 162.703 59.908L163.132 60.649ZM170.108 54.006C170.385 54.006 170.706 54.0537 171.07 54.149L170.914 56.476H170.03V55.007H169.965C168.907 55.007 168.158 55.761 167.716 57.269V60.155H169.107V61H165.545V60.155H166.624V54.994H165.545V54.149H167.443L167.651 55.774C167.928 55.1847 168.257 54.7427 168.639 54.448C169.029 54.1533 169.518 54.006 170.108 54.006ZM175.888 54.006C176.832 54.006 177.556 54.3267 178.059 54.968C178.57 55.6007 178.826 56.4673 178.826 57.568C178.826 58.6427 178.566 59.5093 178.046 60.168C177.534 60.818 176.811 61.143 175.875 61.143C174.93 61.143 174.202 60.8267 173.691 60.194C173.179 59.5527 172.924 58.6817 172.924 57.581C172.924 56.4977 173.179 55.631 173.691 54.981C174.211 54.331 174.943 54.006 175.888 54.006ZM175.888 54.903C175.29 54.903 174.843 55.124 174.549 55.566C174.254 56.008 174.107 56.6797 174.107 57.581C174.107 58.4823 174.25 59.154 174.536 59.596C174.83 60.0293 175.277 60.246 175.875 60.246C176.473 60.246 176.915 60.0293 177.201 59.596C177.495 59.154 177.643 58.478 177.643 57.568C177.643 56.6667 177.495 55.9993 177.201 55.566C176.915 55.124 176.477 54.903 175.888 54.903ZM192.218 51.9C192.773 51.9 193.25 51.9737 193.648 52.121C194.047 52.2597 194.437 52.4763 194.818 52.771L194.181 53.512C193.653 53.07 193.024 52.849 192.296 52.849C191.49 52.849 190.832 53.1437 190.32 53.733C189.818 54.3137 189.566 55.241 189.566 56.515C189.566 57.7803 189.813 58.7077 190.307 59.297C190.801 59.8863 191.46 60.181 192.283 60.181C192.734 60.181 193.12 60.116 193.44 59.986C193.761 59.856 194.069 59.674 194.363 59.44L194.948 60.168C194.281 60.818 193.388 61.143 192.27 61.143C191.534 61.143 190.871 60.9653 190.281 60.61C189.692 60.246 189.228 59.7173 188.89 59.024C188.552 58.3307 188.383 57.4943 188.383 56.515C188.383 55.5443 188.552 54.7123 188.89 54.019C189.237 53.317 189.701 52.7883 190.281 52.433C190.871 52.0777 191.516 51.9 192.218 51.9ZM197.53 57.958C197.556 58.712 197.751 59.2797 198.115 59.661C198.488 60.0423 198.956 60.233 199.519 60.233C199.857 60.233 200.165 60.1853 200.442 60.09C200.728 59.986 201.032 59.83 201.352 59.622L201.859 60.35C201.539 60.6013 201.17 60.7963 200.754 60.935C200.347 61.0737 199.935 61.143 199.519 61.143C198.531 61.143 197.76 60.8223 197.205 60.181C196.659 59.531 196.386 58.6643 196.386 57.581C196.386 56.8963 196.508 56.2853 196.75 55.748C196.993 55.202 197.34 54.7773 197.79 54.474C198.241 54.162 198.765 54.006 199.363 54.006C200.23 54.006 200.91 54.3093 201.404 54.916C201.907 55.514 202.158 56.333 202.158 57.373C202.158 57.5723 202.15 57.7673 202.132 57.958H197.53ZM199.376 54.903C198.848 54.903 198.419 55.0937 198.089 55.475C197.76 55.8477 197.574 56.398 197.53 57.126H201.092C201.084 56.4067 200.928 55.8563 200.624 55.475C200.321 55.0937 199.905 54.903 199.376 54.903ZM204.454 54.149H205.39L205.481 55.111C205.75 54.7643 206.088 54.4957 206.495 54.305C206.911 54.1057 207.327 54.006 207.743 54.006C209.026 54.006 209.667 54.682 209.667 56.034V61H208.575V56.84C208.575 56.3287 208.545 55.9387 208.484 55.67C208.432 55.4013 208.324 55.202 208.159 55.072C207.995 54.942 207.743 54.877 207.405 54.877C207.033 54.877 206.682 54.9897 206.352 55.215C206.023 55.4403 205.754 55.709 205.546 56.021V61H204.454V54.149ZM217.696 60.649C217.462 60.805 217.176 60.9263 216.838 61.013C216.509 61.0997 216.18 61.143 215.85 61.143C215.131 61.143 214.568 60.9567 214.16 60.584C213.753 60.2027 213.549 59.7043 213.549 59.089V55.007H211.976V54.149H213.549V52.602L214.641 52.472V54.149H217.02L216.877 55.007H214.641V59.076C214.641 59.466 214.745 59.7563 214.953 59.947C215.161 60.1377 215.495 60.233 215.954 60.233C216.422 60.233 216.86 60.1247 217.267 59.908L217.696 60.649ZM220.915 57.958C220.941 58.712 221.136 59.2797 221.5 59.661C221.873 60.0423 222.341 60.233 222.904 60.233C223.242 60.233 223.55 60.1853 223.827 60.09C224.113 59.986 224.416 59.83 224.737 59.622L225.244 60.35C224.923 60.6013 224.555 60.7963 224.139 60.935C223.732 61.0737 223.32 61.143 222.904 61.143C221.916 61.143 221.145 60.8223 220.59 60.181C220.044 59.531 219.771 58.6643 219.771 57.581C219.771 56.8963 219.892 56.2853 220.135 55.748C220.378 55.202 220.724 54.7773 221.175 54.474C221.626 54.162 222.15 54.006 222.748 54.006C223.615 54.006 224.295 54.3093 224.789 54.916C225.292 55.514 225.543 56.333 225.543 57.373C225.543 57.5723 225.534 57.7673 225.517 57.958H220.915ZM222.761 54.903C222.232 54.903 221.803 55.0937 221.474 55.475C221.145 55.8477 220.958 56.398 220.915 57.126H224.477C224.468 56.4067 224.312 55.8563 224.009 55.475C223.706 55.0937 223.29 54.903 222.761 54.903ZM232.467 54.006C232.744 54.006 233.065 54.0537 233.429 54.149L233.273 56.476H232.389V55.007H232.324C231.267 55.007 230.517 55.761 230.075 57.269V60.155H231.466V61H227.904V60.155H228.983V54.994H227.904V54.149H229.802L230.01 55.774C230.287 55.1847 230.617 54.7427 230.998 54.448C231.388 54.1533 231.878 54.006 232.467 54.006Z" fill="#2D134A"/>
</svg>
