<svg width="166" height="30" viewBox="0 0 166 30" fill="none" xmlns="http://www.w3.org/2000/svg">
<g clip-path="url(#clip0)">
<path d="M38.552 11.568H44.36V14.4H38.552V21H34.592V4.368H45.512L45.128 7.176H38.552V11.568ZM52.5586 11.184H58.3186V13.92H52.5586V18.168H59.4946V21H48.6226V4.368H59.4946L59.0866 7.176H52.5586V11.184ZM74.5573 12.6C74.5573 18.2 71.8773 21 66.5173 21H62.0293V4.368H66.2293C68.7413 4.368 70.7573 4.96 72.2773 6.144C73.7973 7.312 74.5573 9.464 74.5573 12.6ZM70.5013 12.6C70.5013 10.536 70.1813 9.128 69.5413 8.376C68.9013 7.608 67.9893 7.224 66.8053 7.224H65.9653V18.144H66.8053C68.0053 18.144 68.9173 17.736 69.5413 16.92C70.1813 16.088 70.5013 14.648 70.5013 12.6ZM88.6599 17.856L88.2519 21H76.1079V18.048L84.0039 7.416H76.9719V4.368H88.4679V7.344L80.7399 17.856H88.6599ZM102.163 7.248H98.7305V18.096H102.163V21H91.3625V18.096H94.7945V7.248H91.3625V4.368H102.163V7.248ZM107.961 7.632C108.121 8.848 108.257 10.024 108.369 11.16C108.481 12.28 108.537 13.472 108.537 14.736V21H105.201V4.368H110.121L114.345 17.688C113.961 15.224 113.769 12.904 113.769 10.728V4.368H117.105V21H112.329L107.961 7.632Z" fill="#F5820E"/>
<path d="M120.416 21V4.368H124.352V21H120.416ZM129.008 4.368H133.136L128.432 11.832L133.592 21H129.056L124.472 12.12L129.008 4.368Z" fill="#F5820E"/>
<path d="M129 4L124.5 12L129 21H134L129 12L133.5 4H129Z" fill="#8941D9"/>
<path d="M66.765 25.26C66.765 25.9133 66.615 26.3667 66.315 26.62C66.015 26.8733 65.645 27 65.205 27H64.415V23.555H65.15C65.6333 23.555 66.0233 23.6767 66.32 23.92C66.6167 24.1633 66.765 24.61 66.765 25.26ZM66.3 25.26C66.3 24.8867 66.2483 24.6017 66.145 24.405C66.045 24.205 65.92 24.0733 65.77 24.01C65.62 23.9433 65.4483 23.91 65.255 23.91H64.85V26.65H65.26C65.5567 26.65 65.8033 26.5483 66 26.345C66.2 26.1383 66.3 25.7767 66.3 25.26ZM68.498 23.135C68.5914 23.135 68.6664 23.1633 68.723 23.22C68.7797 23.2733 68.808 23.3433 68.808 23.43C68.808 23.5167 68.7797 23.5883 68.723 23.645C68.6664 23.6983 68.5914 23.725 68.498 23.725C68.408 23.725 68.3347 23.6983 68.278 23.645C68.2247 23.5883 68.198 23.5167 68.198 23.43C68.198 23.3433 68.2247 23.2733 68.278 23.22C68.3347 23.1633 68.408 23.135 68.498 23.135ZM68.833 26.665H69.573V27H67.603V26.665H68.413V24.7H67.628V24.365H68.833V26.665ZM71.3961 26.71C71.5961 26.71 71.7544 26.6717 71.8711 26.595C71.9878 26.5183 72.0461 26.4167 72.0461 26.29C72.0461 26.2033 72.0311 26.1333 72.0011 26.08C71.9711 26.0233 71.9111 25.9733 71.8211 25.93C71.7311 25.8833 71.5944 25.8367 71.4111 25.79C71.1044 25.7133 70.8778 25.6217 70.7311 25.515C70.5844 25.405 70.5111 25.2433 70.5111 25.03C70.5111 24.81 70.6028 24.635 70.7861 24.505C70.9694 24.375 71.2111 24.31 71.5111 24.31C71.8778 24.31 72.1978 24.4067 72.4711 24.6L72.2811 24.89C72.1711 24.8133 72.0561 24.755 71.9361 24.715C71.8161 24.6717 71.6778 24.65 71.5211 24.65C71.1411 24.65 70.9511 24.765 70.9511 24.995C70.9511 25.075 70.9711 25.14 71.0111 25.19C71.0544 25.24 71.1228 25.285 71.2161 25.325C71.3128 25.3617 71.4561 25.4067 71.6461 25.46C71.9328 25.5367 72.1461 25.635 72.2861 25.755C72.4294 25.8717 72.5011 26.0433 72.5011 26.27C72.5011 26.5333 72.3944 26.73 72.1811 26.86C71.9678 26.99 71.7061 27.055 71.3961 27.055C70.9828 27.055 70.6394 26.9367 70.3661 26.7L70.6011 26.425C70.7078 26.5117 70.8294 26.5817 70.9661 26.635C71.1028 26.685 71.2461 26.71 71.3961 26.71ZM75.5891 26.865C75.4991 26.925 75.3891 26.9717 75.2591 27.005C75.1325 27.0383 75.0058 27.055 74.8791 27.055C74.6025 27.055 74.3858 26.9833 74.2291 26.84C74.0725 26.6933 73.9941 26.5017 73.9941 26.265V24.695H73.3891V24.365H73.9941V23.77L74.4141 23.72V24.365H75.3291L75.2741 24.695H74.4141V26.26C74.4141 26.41 74.4541 26.5217 74.5341 26.595C74.6141 26.6683 74.7425 26.705 74.9191 26.705C75.0991 26.705 75.2675 26.6633 75.4241 26.58L75.5891 26.865ZM78.2722 24.31C78.3789 24.31 78.5022 24.3283 78.6422 24.365L78.5822 25.26H78.2422V24.695H78.2172C77.8105 24.695 77.5222 24.985 77.3522 25.565V26.675H77.8872V27H76.5172V26.675H76.9322V24.69H76.5172V24.365H77.2472L77.3272 24.99C77.4339 24.7633 77.5605 24.5933 77.7072 24.48C77.8572 24.3667 78.0455 24.31 78.2722 24.31ZM80.4952 24.31C80.8586 24.31 81.1369 24.4333 81.3302 24.68C81.5269 24.9233 81.6252 25.2567 81.6252 25.68C81.6252 26.0933 81.5252 26.4267 81.3252 26.68C81.1286 26.93 80.8502 27.055 80.4902 27.055C80.1269 27.055 79.8469 26.9333 79.6502 26.69C79.4536 26.4433 79.3552 26.1083 79.3552 25.685C79.3552 25.2683 79.4536 24.935 79.6502 24.685C79.8502 24.435 80.1319 24.31 80.4952 24.31ZM80.4952 24.655C80.2652 24.655 80.0936 24.74 79.9802 24.91C79.8669 25.08 79.8102 25.3383 79.8102 25.685C79.8102 26.0317 79.8652 26.29 79.9752 26.46C80.0886 26.6267 80.2602 26.71 80.4902 26.71C80.7202 26.71 80.8902 26.6267 81.0002 26.46C81.1136 26.29 81.1702 26.03 81.1702 25.68C81.1702 25.3333 81.1136 25.0767 81.0002 24.91C80.8902 24.74 80.7219 24.655 80.4952 24.655ZM86.7763 23.5C86.9897 23.5 87.173 23.5283 87.3263 23.585C87.4797 23.6383 87.6297 23.7217 87.7763 23.835L87.5313 24.12C87.328 23.95 87.0863 23.865 86.8063 23.865C86.4963 23.865 86.243 23.9783 86.0463 24.205C85.853 24.4283 85.7563 24.785 85.7563 25.275C85.7563 25.7617 85.8513 26.1183 86.0413 26.345C86.2313 26.5717 86.4847 26.685 86.8013 26.685C86.9747 26.685 87.123 26.66 87.2463 26.61C87.3697 26.56 87.488 26.49 87.6013 26.4L87.8263 26.68C87.5697 26.93 87.2263 27.055 86.7963 27.055C86.513 27.055 86.258 26.9867 86.0313 26.85C85.8047 26.71 85.6263 26.5067 85.4963 26.24C85.3663 25.9733 85.3013 25.6517 85.3013 25.275C85.3013 24.9017 85.3663 24.5817 85.4963 24.315C85.6297 24.045 85.808 23.8417 86.0313 23.705C86.258 23.5683 86.5063 23.5 86.7763 23.5ZM88.8194 25.83C88.8294 26.12 88.9044 26.3383 89.0444 26.485C89.1877 26.6317 89.3677 26.705 89.5844 26.705C89.7144 26.705 89.8327 26.6867 89.9394 26.65C90.0494 26.61 90.166 26.55 90.2894 26.47L90.4844 26.75C90.361 26.8467 90.2194 26.9217 90.0594 26.975C89.9027 27.0283 89.7444 27.055 89.5844 27.055C89.2044 27.055 88.9077 26.9317 88.6944 26.685C88.4844 26.435 88.3794 26.1017 88.3794 25.685C88.3794 25.4217 88.426 25.1867 88.5194 24.98C88.6127 24.77 88.746 24.6067 88.9194 24.49C89.0927 24.37 89.2944 24.31 89.5244 24.31C89.8577 24.31 90.1194 24.4267 90.3094 24.66C90.5027 24.89 90.5994 25.205 90.5994 25.605C90.5994 25.6817 90.596 25.7567 90.5894 25.83H88.8194ZM89.5294 24.655C89.326 24.655 89.161 24.7283 89.0344 24.875C88.9077 25.0183 88.836 25.23 88.8194 25.51H90.1894C90.186 25.2333 90.126 25.0217 90.0094 24.875C89.8927 24.7283 89.7327 24.655 89.5294 24.655ZM91.4824 24.365H91.8424L91.8774 24.735C91.9808 24.6017 92.1108 24.4983 92.2674 24.425C92.4274 24.3483 92.5874 24.31 92.7474 24.31C93.2408 24.31 93.4874 24.57 93.4874 25.09V27H93.0674V25.4C93.0674 25.2033 93.0558 25.0533 93.0324 24.95C93.0124 24.8467 92.9708 24.77 92.9074 24.72C92.8441 24.67 92.7474 24.645 92.6174 24.645C92.4741 24.645 92.3391 24.6883 92.2124 24.775C92.0858 24.8617 91.9824 24.965 91.9024 25.085V27H91.4824V24.365ZM96.5755 26.865C96.4855 26.925 96.3755 26.9717 96.2455 27.005C96.1188 27.0383 95.9921 27.055 95.8655 27.055C95.5888 27.055 95.3721 26.9833 95.2155 26.84C95.0588 26.6933 94.9805 26.5017 94.9805 26.265V24.695H94.3755V24.365H94.9805V23.77L95.4005 23.72V24.365H96.3155L96.2605 24.695H95.4005V26.26C95.4005 26.41 95.4405 26.5217 95.5205 26.595C95.6005 26.6683 95.7288 26.705 95.9055 26.705C96.0855 26.705 96.2538 26.6633 96.4105 26.58L96.5755 26.865ZM97.8135 25.83C97.8235 26.12 97.8985 26.3383 98.0385 26.485C98.1818 26.6317 98.3618 26.705 98.5785 26.705C98.7085 26.705 98.8268 26.6867 98.9335 26.65C99.0435 26.61 99.1602 26.55 99.2835 26.47L99.4785 26.75C99.3552 26.8467 99.2135 26.9217 99.0535 26.975C98.8968 27.0283 98.7385 27.055 98.5785 27.055C98.1985 27.055 97.9018 26.9317 97.6885 26.685C97.4785 26.435 97.3735 26.1017 97.3735 25.685C97.3735 25.4217 97.4202 25.1867 97.5135 24.98C97.6068 24.77 97.7402 24.6067 97.9135 24.49C98.0868 24.37 98.2885 24.31 98.5185 24.31C98.8518 24.31 99.1135 24.4267 99.3035 24.66C99.4968 24.89 99.5935 25.205 99.5935 25.605C99.5935 25.6817 99.5902 25.7567 99.5835 25.83H97.8135ZM98.5235 24.655C98.3202 24.655 98.1552 24.7283 98.0285 24.875C97.9018 25.0183 97.8302 25.23 97.8135 25.51H99.1835C99.1802 25.2333 99.1202 25.0217 99.0035 24.875C98.8868 24.7283 98.7268 24.655 98.5235 24.655ZM102.257 24.31C102.363 24.31 102.487 24.3283 102.627 24.365L102.567 25.26H102.227V24.695H102.202C101.795 24.695 101.507 24.985 101.337 25.565V26.675H101.872V27H100.502V26.675H100.917V24.69H100.502V24.365H101.232L101.312 24.99C101.418 24.7633 101.545 24.5933 101.692 24.48C101.842 24.3667 102.03 24.31 102.257 24.31Z" fill="#2D134A"/>
</g>
<defs>
<clipPath id="clip0">
<rect width="166" height="30" fill="white"/>
</clipPath>
</defs>
</svg>
